<?xml version="1.0" standalone="no"?>
<!DOCTYPE svg PUBLIC "-//W3C//DTD SVG 20010904//EN"
 "http://www.w3.org/TR/2001/REC-SVG-20010904/DTD/svg10.dtd">
<svg version="1.0" xmlns="http://www.w3.org/2000/svg"
 width="900.000000pt" height="500.000000pt" viewBox="0 0 900.000000 500.000000"
 preserveAspectRatio="xMidYMid meet">

<g transform="translate(0.000000,500.000000) scale(0.100000,-0.100000)"
fill="#000000" stroke="none">
<path d="M7590 2775 l0 -745 150 0 150 0 0 158 0 158 94 87 c52 48 98 87 103
87 4 -1 87 -111 183 -245 l175 -244 183 -1 183 0 -79 103 c-259 336 -442 581
-440 586 2 4 119 117 261 251 141 133 257 245 257 247 0 1 -90 3 -200 3 l-200
0 -257 -241 -258 -241 -3 391 -2 391 -150 0 -150 0 0 -745z"/>
<path d="M1000 3491 c-377 -84 -671 -362 -772 -732 -31 -114 -33 -363 -4 -479
37 -148 115 -306 203 -411 141 -169 396 -325 496 -304 86 18 149 97 149 186
-1 85 -39 131 -162 195 -93 49 -212 163 -257 249 -60 114 -78 187 -78 315 0
161 34 262 129 385 64 81 135 139 231 185 98 47 159 60 277 60 174 0 324 -63
448 -189 193 -196 238 -480 117 -731 -47 -96 -187 -234 -287 -282 -83 -40
-112 -66 -135 -120 -55 -133 66 -277 208 -246 96 21 248 118 358 227 215 216
319 501 289 794 -11 114 -43 238 -85 333 -60 135 -202 307 -330 400 -74 54
-238 130 -335 155 -121 31 -342 36 -460 10z"/>
<path d="M3195 3200 c-130 -26 -264 -111 -344 -217 -117 -156 -149 -348 -89
-542 55 -181 189 -317 375 -379 67 -22 95 -26 203 -26 109 0 134 4 197 26 40
14 95 42 123 62 27 20 52 36 55 36 3 0 5 -28 5 -63 0 -90 -24 -161 -71 -212
-76 -82 -166 -109 -318 -94 -103 10 -189 42 -259 98 l-37 29 -102 -98 -103
-98 53 -46 c61 -54 206 -128 292 -150 215 -54 427 -33 580 59 111 67 184 155
234 283 l26 67 3 638 3 637 -151 0 -150 0 0 -60 c0 -33 -4 -60 -9 -60 -5 0
-22 11 -38 24 -76 63 -192 96 -332 95 -58 -1 -124 -5 -146 -9z m340 -294 c67
-30 119 -77 144 -130 18 -35 21 -61 21 -157 0 -108 -2 -117 -30 -165 -56 -99
-170 -149 -320 -142 -69 3 -98 10 -143 32 -106 52 -163 161 -155 300 6 117 60
201 162 253 95 48 228 52 321 9z"/>
<path d="M4695 3199 c-282 -63 -466 -270 -483 -541 -17 -299 170 -544 468
-613 83 -19 245 -19 334 0 214 45 397 220 451 430 19 76 19 202 0 284 -50 209
-219 375 -439 432 -77 20 -258 24 -331 8z m277 -285 c164 -56 244 -268 164
-439 -31 -65 -78 -112 -146 -144 -46 -22 -69 -26 -145 -26 -78 0 -97 4 -147
28 -110 54 -171 156 -172 287 -1 195 146 331 340 315 34 -3 82 -12 106 -21z"/>
<path d="M5670 2536 c0 -423 -4 -684 -10 -701 -15 -40 -64 -55 -180 -55 l-100
0 0 -145 0 -145 108 0 c121 0 225 13 294 36 56 18 132 83 158 134 41 81 43
109 44 843 l1 707 -157 0 -158 0 0 -674z"/>
<path d="M6635 3198 c-71 -13 -201 -77 -263 -129 -73 -61 -137 -158 -169 -254
-23 -69 -27 -97 -27 -200 1 -98 5 -132 23 -185 81 -234 265 -370 545 -402 160
-18 314 14 446 92 58 34 150 114 150 129 0 3 -46 38 -102 77 l-102 71 -62 -43
c-86 -58 -156 -77 -269 -72 -105 5 -185 36 -249 96 -36 35 -75 102 -76 130 0
9 99 12 461 12 l462 0 -6 108 c-19 359 -257 585 -611 581 -56 -1 -123 -6 -151
-11z m324 -280 c69 -36 116 -89 127 -145 l7 -33 -302 0 c-332 0 -315 -4 -287
63 58 141 290 199 455 115z"/>
<path d="M1081 2860 c-100 -37 -188 -125 -228 -229 -12 -31 -18 -73 -18 -126
0 -68 5 -90 32 -146 43 -93 91 -142 181 -187 70 -34 83 -37 156 -36 172 1 308
98 362 258 26 74 16 205 -21 279 -35 71 -107 140 -183 175 -77 36 -202 42
-281 12z"/>
</g>
</svg>
