<?xml version="1.0" standalone="no"?>
<!DOCTYPE svg PUBLIC "-//W3C//DTD SVG 20010904//EN"
 "http://www.w3.org/TR/2001/REC-SVG-20010904/DTD/svg10.dtd">
<svg version="1.0" xmlns="http://www.w3.org/2000/svg"
 width="900.000000pt" height="500.000000pt" viewBox="0 0 900.000000 500.000000"
 preserveAspectRatio="xMidYMid meet">

<g transform="translate(0.000000,500.000000) scale(0.100000,-0.100000)"
fill="#000000" stroke="none">
<path d="M2076 3415 c-49 -17 -92 -59 -108 -104 -10 -28 -13 -166 -13 -586 0
-302 4 -567 8 -587 14 -68 97 -137 165 -138 l22 0 0 220 0 220 108 0 c187 -1
222 -32 230 -205 7 -141 36 -191 131 -223 66 -23 63 -32 59 186 -3 192 -4 199
-31 253 -26 55 -66 92 -129 120 l-26 11 43 57 c38 49 205 331 205 346 0 3 -48
5 -108 5 l-108 0 -87 -148 c-113 -193 -134 -212 -231 -212 l-56 0 0 400 c0
448 7 414 -74 385z"/>
<path d="M7078 3420 c-53 -16 -97 -51 -117 -94 -20 -41 -21 -58 -21 -432 0
-238 -4 -413 -11 -449 -36 -196 -182 -303 -361 -266 -87 19 -155 72 -198 155
-33 65 -35 75 -35 165 0 118 24 178 94 244 60 56 106 72 206 72 82 0 83 -1
248 -83 4 -2 7 43 7 101 l0 105 -42 17 c-277 112 -546 24 -662 -218 -97 -201
-52 -465 103 -617 70 -68 143 -106 247 -127 266 -55 517 105 579 368 20 87 23
1070 3 1068 -7 0 -25 -4 -40 -9z"/>
<path d="M7443 3299 c-68 -20 -95 -108 -53 -176 34 -56 120 -64 172 -15 88 82
-1 224 -119 191z"/>
<path d="M316 3215 c-52 -18 -104 -71 -117 -118 -6 -24 -9 -189 -7 -455 3
-368 6 -422 21 -463 24 -63 66 -110 128 -144 53 -29 59 -29 222 -33 l167 -4 0
96 0 96 -137 0 c-91 0 -147 5 -163 13 -43 22 -49 62 -49 335 l-1 252 175 0
175 0 0 95 0 95 -170 0 -170 0 0 125 c0 140 2 137 -74 110z"/>
<path d="M5453 2999 c-244 -40 -426 -257 -427 -509 -1 -172 80 -322 224 -419
113 -75 239 -106 375 -90 125 14 218 66 290 161 l45 60 -81 59 -81 60 -58 -56
c-76 -72 -126 -94 -211 -95 -119 0 -240 78 -284 184 -8 19 -15 45 -15 56 0 20
5 20 405 20 l405 0 0 73 c0 173 -74 311 -217 407 -112 75 -251 108 -370 89z
m215 -213 c27 -14 63 -37 81 -52 30 -25 71 -91 71 -114 0 -7 -93 -10 -280 -10
-154 0 -280 2 -280 5 0 15 35 71 67 106 35 39 88 72 143 90 44 15 145 2 198
-25z"/>
<path d="M1167 2985 c-135 -37 -254 -134 -314 -255 -41 -84 -52 -136 -53 -241
0 -180 77 -326 226 -424 281 -187 682 -38 766 284 32 125 18 273 -38 384 -34
67 -144 177 -211 211 -108 54 -265 72 -376 41z m266 -197 c163 -70 224 -310
123 -482 -95 -162 -350 -182 -477 -37 -131 148 -89 431 75 510 90 44 188 47
279 9z"/>
<path d="M3167 2985 c-172 -47 -306 -183 -352 -356 -19 -70 -19 -200 0 -272
31 -119 105 -222 210 -292 282 -187 682 -38 767 284 49 191 -2 383 -137 510
-73 68 -136 104 -222 126 -69 18 -200 18 -266 0z m266 -197 c161 -69 224 -305
126 -477 -95 -166 -351 -189 -480 -43 -45 51 -68 113 -76 204 -7 85 23 188 73
247 80 93 231 122 357 69z"/>
<path d="M4293 2985 c-180 -49 -307 -192 -348 -391 -13 -67 -15 -144 -13 -489
l3 -410 27 -40 c33 -48 70 -72 126 -81 l41 -6 3 503 3 504 29 63 c34 74 104
142 164 160 21 7 70 12 108 12 174 0 295 -128 296 -315 1 -86 -12 -136 -52
-198 -82 -130 -258 -163 -422 -79 l-78 40 0 -103 0 -102 59 -27 c126 -56 299
-56 418 0 120 57 235 202 262 332 37 179 -24 387 -150 507 -121 116 -312 164
-476 120z"/>
<path d="M8161 2984 c-166 -45 -303 -183 -340 -345 -15 -65 -13 -217 4 -282 8
-31 28 -83 44 -116 126 -249 443 -336 662 -181 l29 21 0 122 0 122 -44 -51
c-63 -72 -146 -108 -231 -102 -34 3 -82 14 -107 25 -202 90 -238 406 -62 552
58 47 121 64 219 59 119 -6 200 -53 248 -143 20 -37 22 -59 27 -291 l5 -251
27 -40 c27 -40 71 -68 127 -79 l31 -6 0 309 c0 336 -5 380 -57 475 -51 94
-157 171 -280 203 -72 19 -230 18 -302 -1z"/>
<path d="M7380 2588 c0 -234 5 -411 11 -438 18 -80 71 -130 152 -145 l37 -7 0
491 0 491 -100 0 -100 0 0 -392z"/>
</g>
</svg>
