<?xml version="1.0" standalone="no"?>
<!DOCTYPE svg PUBLIC "-//W3C//DTD SVG 20010904//EN"
 "http://www.w3.org/TR/2001/REC-SVG-20010904/DTD/svg10.dtd">
<svg version="1.0" xmlns="http://www.w3.org/2000/svg"
 width="1825.000000pt" height="406.000000pt" viewBox="0 0 1825.000000 406.000000"
 preserveAspectRatio="xMidYMid meet">

<g transform="translate(0.000000,406.000000) scale(0.100000,-0.100000)"
fill="#000000" stroke="none">
<path d="M18120 3619 c-541 -79 -990 -226 -1309 -429 l-63 -41 6 -82 c23 -274
91 -584 177 -796 47 -120 128 -278 168 -330 18 -24 19 -24 14 45 -18 261 232
632 995 1476 79 87 142 162 140 167 -2 4 -59 0 -128 -10z"/>
<path d="M8812 1663 c3 -1140 5 -1232 21 -1288 56 -190 174 -300 367 -341 74
-16 240 -15 283 2 15 5 17 25 17 194 l0 188 -92 -5 c-86 -5 -95 -4 -122 18
-65 51 -61 -26 -64 1277 l-2 1182 -206 0 -205 0 3 -1227z"/>
<path d="M12170 1465 l0 -1425 205 0 205 0 0 480 0 480 103 0 104 0 319 -480
319 -479 248 -1 c136 0 247 3 247 6 0 3 -177 262 -392 576 -216 313 -391 573
-389 576 2 4 166 209 365 457 198 247 363 453 364 457 2 4 -110 8 -250 8
l-253 -1 -290 -369 -289 -370 -103 0 -103 0 0 755 0 755 -205 0 -205 0 0
-1425z"/>
<path d="M260 2375 l0 -275 -130 0 -130 0 0 -180 0 -180 124 0 125 0 3 -552 4
-553 26 -97 c49 -180 138 -309 274 -398 129 -84 320 -129 499 -116 150 10 135
-13 135 213 0 154 -3 194 -13 190 -44 -17 -139 -28 -187 -23 -177 20 -289 131
-319 316 -7 39 -11 257 -11 543 l0 477 245 0 245 0 0 180 0 180 -245 0 -245 0
0 275 0 275 -200 0 -200 0 0 -275z"/>
<path d="M3315 2145 c-192 -35 -391 -118 -508 -211 -54 -43 -57 -48 -44 -68 7
-11 51 -83 96 -158 45 -76 86 -138 90 -138 4 0 33 18 65 41 137 98 297 156
458 166 269 16 421 -96 446 -328 l8 -76 -206 -6 c-600 -18 -941 -187 -1062
-527 -29 -80 -36 -273 -14 -360 48 -187 157 -316 341 -405 128 -61 194 -75
366 -75 151 0 213 10 312 52 69 29 176 98 232 149 l45 42 0 -102 0 -101 195 0
196 0 -3 757 c-3 750 -4 759 -26 837 -74 263 -239 428 -498 497 -104 28 -369
36 -489 14z m609 -1187 c-23 -249 -154 -467 -332 -556 -74 -36 -78 -37 -191
-37 -107 0 -121 2 -179 29 -80 37 -146 108 -167 179 -65 218 110 381 460 427
114 14 144 16 287 18 l128 2 -6 -62z"/>
<path d="M7350 2139 c-259 -55 -487 -208 -628 -423 -234 -357 -235 -900 -3
-1252 138 -210 353 -363 611 -436 95 -27 404 -37 515 -18 202 36 409 136 574
277 l34 29 -97 162 c-53 89 -100 162 -104 162 -4 0 -38 -27 -77 -60 -86 -74
-239 -153 -354 -181 -121 -30 -292 -24 -406 15 -152 52 -271 147 -348 277 -38
66 -79 181 -91 257 l-6 42 739 0 740 0 7 56 c3 31 4 127 1 213 -7 204 -36 318
-118 471 -123 228 -334 378 -590 419 -103 17 -291 12 -399 -10z m345 -354
c159 -42 279 -163 329 -334 9 -30 16 -65 16 -78 l0 -23 -521 0 -521 0 7 28 c3
15 23 61 43 102 77 158 247 284 422 313 59 10 170 6 225 -8z"/>
<path d="M10517 2144 c-166 -30 -330 -102 -468 -206 -294 -221 -450 -585 -412
-961 45 -442 327 -798 738 -930 133 -43 187 -49 391 -45 170 4 198 7 279 32
618 186 936 827 715 1439 -124 340 -451 606 -828 672 -105 19 -310 18 -415 -1z
m413 -394 c241 -81 398 -252 461 -500 44 -172 11 -389 -82 -547 -43 -73 -158
-188 -231 -231 -102 -60 -189 -85 -318 -90 -136 -5 -218 11 -325 63 -137 67
-241 171 -309 310 -57 115 -71 182 -70 335 0 119 4 145 27 215 77 233 266 407
498 460 92 21 264 13 349 -15z"/>
<path d="M14585 2145 c-112 -21 -267 -71 -355 -115 -66 -33 -192 -119 -204
-139 -5 -7 161 -292 182 -313 7 -7 37 8 96 47 277 184 632 209 785 53 59 -60
101 -166 101 -260 l0 -48 -142 0 c-263 0 -533 -46 -711 -120 -223 -93 -376
-255 -422 -451 -19 -82 -19 -246 0 -327 52 -218 242 -394 496 -456 87 -21 331
-22 414 -1 92 23 232 97 313 164 l72 61 0 -100 0 -100 195 0 196 0 -3 757 c-3
743 -4 760 -25 835 -39 137 -88 223 -183 318 -96 97 -179 145 -316 181 -104
28 -369 36 -489 14z m605 -1183 c0 -218 -149 -471 -328 -560 -74 -36 -78 -37
-191 -37 -107 0 -121 2 -179 29 -219 101 -243 361 -46 496 117 81 331 125 622
129 l122 1 0 -58z"/>
<path d="M2300 2130 c-144 -19 -288 -96 -397 -214 l-63 -67 0 136 0 135 -200
0 -200 0 0 -1040 0 -1040 205 0 205 0 0 498 c0 550 5 608 62 772 43 123 92
206 167 281 80 79 152 115 261 131 72 11 87 10 150 -9 l70 -20 0 208 0 208
-37 10 c-58 14 -162 20 -223 11z"/>
<path d="M4514 2103 c4 -10 185 -478 403 -1040 l397 -1023 196 0 196 0 393
1027 c217 566 396 1034 399 1041 3 9 -44 12 -214 12 l-219 0 -269 -713 c-148
-391 -274 -722 -280 -734 -9 -18 -51 84 -288 710 l-276 732 -222 3 c-209 2
-222 1 -216 -15z"/>
</g>
</svg>
